<svg width="14" height="13" fill="none" xmlns="http://www.w3.org/2000/svg"><path d="M13 7.023V4.977a.641.641 0 0 0-.643-.643h-3.69V.643A.641.641 0 0 0 8.022 0H5.977a.641.641 0 0 0-.643.643v3.69H1.643A.641.641 0 0 0 1 4.978v2.046c0 .356.287.643.643.643h3.69v3.691c0 .356.288.643.644.643h2.046a.641.641 0 0 0 .643-.643v-3.69h3.691A.641.641 0 0 0 13 7.022Z" fill="#000"/><mask id="a" style="mask-type:alpha" maskUnits="userSpaceOnUse" x="1" y="0" width="12" height="12"><path d="M13 7.023V4.977a.641.641 0 0 0-.643-.643h-3.69V.643A.641.641 0 0 0 8.022 0H5.977a.641.641 0 0 0-.643.643v3.69H1.643A.641.641 0 0 0 1 4.978v2.046c0 .356.287.643.643.643h3.69v3.691c0 .356.288.643.644.643h2.046a.641.641 0 0 0 .643-.643v-3.69h3.691A.641.641 0 0 0 13 7.022Z" fill="#fff"/></mask><g mask="url(#a)"><path fill="#FF7E1B" d="M.143-.857h13.714v13.714H.143z"/></g></svg>