<svg width="139" height="22" fill="none" xmlns="http://www.w3.org/2000/svg"><path fill-rule="evenodd" clip-rule="evenodd" d="M83.297 11.955 89.827 21H84.6l-4.357-6.037-3.02 2.976v3.015h-4.188V1h4.187v11.223l6.836-6.756h5.827l-6.588 6.488Zm-30.694 3.64C52.173 18.93 49.48 21 44.386 21c-5.316 0-8.336-2.677-8.336-7.846 0-5.073 3.097-7.845 8.336-7.845 2.195 0 3.94.55 5.251 1.465v-.006c2.997 2.024 3.266 5.31 3.026 7.44h-.155v.001H40.136c.288 2.076 1.529 3.105 4.25 3.105 2.512 0 3.757-.699 4.143-1.719h4.074ZM9.217 21c4.761 0 7.519-.753 7.519-4.607 0-3.399-3.38-4.17-6.66-4.68l-.56-.086-.279-.042-.35-.052c-2.7-.405-3.18-.788-3.18-1.471 0-.478.49-1.331 2.843-1.331 2.455 0 3.493.647 3.493 1.87v.134h4.282v-.133c0-2.389-1.35-5.238-7.775-5.238-5.952 0-7.201 2.584-7.201 4.752 0 3.097 2.763 4.086 7.223 4.675.21.028.433.054.659.081 1.669.197 3.172.42 3.172 1.585 0 1.01-1.615 1.222-3.298 1.222-2.797 0-3.784-.592-3.784-1.92v-.134H1.002L1 15.927v.316c.008.79.118 1.913 1.057 2.862C3.303 20.362 5.712 21 9.217 21Zm13.21 0v-7.49c0-2.104.547-4.423 4.176-4.423 3.81 0 3.783 2.631 3.769 3.938l-.001.104V21h4.18v-7.768c0-2.264-.176-7.766-6.732-7.766-2.778 0-4.192.911-5.195 2.28h-.197V5.467h-4.206V21h4.206Zm26.058-9.574h-8.188c.486-1.574 1.764-2.431 4.089-2.431 2.994 0 3.755 1.268 4.099 2.431Zm23.014-5.969V21H67.29v-2.169h-.131C66.109 20.183 64.339 21 61.425 21c-6.509 0-7.242-5.679-7.242-7.771v-.137c.03-2.342.821-7.635 7.254-7.635 2.868 0 4.624.906 5.677 2.283h.176V5.457H71.5Zm-8.853 11.92c-3.997 0-4.448-3.032-4.448-4.148 0-1.21.425-4.148 4.455-4.148 3.631 0 4.374 2.044 4.374 4.148 0 2.35-.742 4.148-4.382 4.148ZM99.725 21c5.094 0 7.786-2.07 8.217-5.405h-4.074c-.387 1.02-1.631 1.72-4.143 1.72-2.722 0-3.962-1.03-4.25-3.106h12.527c.24-2.13-.029-5.417-3.026-7.44v.005c-1.312-.915-3.057-1.465-5.251-1.465-5.24 0-8.336 2.772-8.336 7.845 0 5.17 3.02 7.846 8.336 7.846Zm-4.089-9.574h8.187c-.343-1.164-1.104-2.431-4.098-2.431-2.326 0-3.603.857-4.089 2.431ZM113.76 21v-6.97c0-2.103.931-4.542 4.05-4.542 1.33 0 2.393.236 2.785.346l.67-3.976-.237-.053c-.683-.154-1.509-.34-2.52-.34-2.665 0-3.622.795-4.486 2.283h-.262V5.466h-4.209V21h4.209Zm24.74-4.607c0 3.854-2.758 4.607-7.519 4.607-3.505 0-5.914-.638-7.16-1.895-.939-.95-1.048-2.072-1.057-2.862l.001-.316.001-.302h4.319v.134c0 1.328.988 1.92 3.784 1.92 1.683 0 3.298-.212 3.298-1.221 0-1.167-1.503-1.39-3.172-1.586a53.457 53.457 0 0 1-.658-.08c-4.461-.59-7.224-1.579-7.224-4.676 0-2.168 1.249-4.752 7.201-4.752 6.425 0 7.775 2.849 7.775 5.238v.133h-4.282v-.134c0-1.223-1.038-1.87-3.493-1.87-2.352 0-2.843.853-2.843 1.331 0 .683.48 1.066 3.181 1.471l.349.053.279.041.56.085c3.28.51 6.66 1.283 6.66 4.681Z" fill="#1D2026"/><path d="M89.826 21v.5h.978l-.573-.793-.405.293Zm-6.529-9.045-.35-.356-.306.301.25.348.406-.293ZM84.6 21l-.406.293.15.207h.256V21Zm-4.357-6.037.405-.292-.341-.473-.415.41.35.355Zm-3.02 2.976-.352-.357-.149.147v.21h.5Zm0 3.015v.5h.5v-.5h-.5Zm-4.188 0h-.5v.5h.5v-.5Zm0-19.954V.5h-.5V1h.5Zm4.187 0h.5V.5h-.5V1Zm0 11.223h-.5v1.197l.852-.842-.352-.355Zm6.836-6.756v-.5h-.206l-.146.145.352.355Zm5.827 0 .35.357.87-.857h-1.22v.5ZM52.603 15.595l.496.064.073-.564h-.569v.5Zm-2.966-8.821-.286.41.786.548v-.958h-.5Zm0-.006.28-.414-.78-.527v.941h.5Zm3.026 7.44v.5h.447l.05-.444-.497-.056Zm-.155 0v-.5h-.502l.002.502.5-.002Zm0 .001v.5h.502l-.002-.502-.5.002Zm-12.372 0v-.5h-.574l.08.569.494-.069Zm8.393 1.386v-.5h-.345l-.122.323.467.177Zm-38.453-3.883.077-.494h-.002l-.075.494Zm-.56-.085.075-.494h-.002l-.074.494Zm-.279-.042-.074.495.074-.495Zm-.35-.052-.073.495.074-.495Zm3.156-.798h-.5v.5h.5v-.5Zm4.282 0v.5h.5v-.5h-.5Zm-7.753 4.056-.065.496.065-.496Zm.659.081.058-.497-.058.497Zm-3.91.753h.5v-.5h-.5v.5Zm-4.319 0v-.5H.505l-.003.498.5.002ZM1 15.927l-.5-.003v.002H1Zm0 .316H.5v.006l.5-.006Zm1.057 2.862-.356.352.356-.352ZM22.427 21v.5h.5V21h-.5Zm7.945-7.975-.5-.006.5.006Zm-.001.104-.5-.005v.005h.5Zm0 7.871h-.5l-.001.5h.5V21Zm4.18 0v.5h.5V21h-.5Zm0-7.768h.5-.5Zm-6.732-7.766v-.5.5Zm-5.195 2.28v.5h.254l.15-.205-.404-.295Zm-.197 0h-.5v.5h.5v-.5Zm0-2.279h.5v-.5h-.5v.5Zm-4.206 0v-.5h-.5v.5h.5Zm0 15.533h-.5v.5h.5V21Zm22.076-9.574-.478-.147-.2.647h.678v-.5Zm8.188 0v.5h.669l-.19-.642-.48.142ZM71.499 21v.5h.5V21h-.5Zm0-15.543h.5v-.5h-.5v.5ZM67.29 21h-.5v.5h.5V21Zm0-2.169h.5v-.5h-.5v.5Zm-.131 0v-.5h-.245l-.15.193.395.307ZM54.183 13.23l-.5-.003v.003h.5Zm0-.137-.5-.006v.003l.5.003ZM67.115 7.74l-.397.303.15.197h.247v-.5Zm.176 0v.5h.5v-.5h-.5Zm0-2.283v-.5h-.5v.5h.5Zm40.653 10.138.496.064.073-.564h-.569v.5Zm-4.074 0v-.5h-.345l-.122.323.467.177Zm-8.393-1.386v-.5h-.574l.079.569.495-.069Zm12.372 0v.5h.5v-.5h-.5Zm0 0v-.5h-.5v.5h.5Zm.155 0v.5h.446l.05-.445-.496-.056Zm-3.026-7.44.28-.415-.78-.527v.941h.5Zm0 .005-.286.41.786.548v-.958h-.5Zm-1.153 4.652v.5h.67l-.19-.642-.48.142Zm-8.187 0-.478-.147-.2.647h.678v-.5ZM113.76 21v.5h.5V21h-.5Zm6.835-11.166-.135.482.536.15.092-.549-.493-.083Zm.67-3.976.493.083.079-.469-.464-.102-.108.488Zm-.237-.053.11-.487-.003-.001-.107.488Zm0 0-.11.488h.003l.107-.488Zm-7.006 1.943v.5h.288l.144-.25-.432-.25Zm-.262 0h-.5v.5h.5v-.5Zm0-2.282h.5v-.5h-.5v.5Zm-4.209 0v-.5h-.5v.5h.5Zm0 15.534h-.5v.5h.5V21Zm14.27-1.895-.355.352.355-.352Zm-1.057-2.862h-.5v.006l.5-.006Zm.001-.316-.5-.003v.002h.5Zm.001-.302v-.5h-.497l-.003.498.5.002Zm4.319 0h.5v-.5h-.5v.5Zm3.91-.753.058-.497-.058.497Zm-.658-.08-.066.495h.001l.065-.496Zm7.752-4.057v.5h.5v-.5h-.5Zm-4.282 0h-.5v.5h.5v-.5Zm-3.155.798-.074.495.074-.495Zm.349.053-.074.494.074-.495Zm.279.041.075-.494h-.002l-.073.494Zm.56.085.077-.494h-.002l-.075.494Zm-41.609 8.995-6.528-9.044-.811.585 6.529 9.045.81-.586ZM84.6 21.5h5.226v-1H84.6v1Zm-4.763-6.244 4.357 6.037.811-.586-4.357-6.036-.81.585Zm-2.264 3.039 3.02-2.976-.701-.712-3.02 2.975.701.713Zm.15 2.66v-3.016h-1v3.015h1Zm-4.688.5h4.187v-1h-4.187v1ZM72.535 1v19.954h1V1h-1Zm4.687-.5h-4.187v1h4.187v-1Zm.5 11.723V1h-1v11.223h1Zm5.984-7.111-6.835 6.755.703.711 6.835-6.755-.703-.711Zm6.179-.145h-5.827v1h5.827v-1Zm-6.237 7.345 6.588-6.488-.702-.713-6.588 6.488.702.713ZM44.386 21.5c2.608 0 4.665-.53 6.14-1.54 1.49-1.02 2.341-2.503 2.573-4.3l-.992-.129c-.198 1.537-.909 2.756-2.146 3.604-1.253.859-3.089 1.365-5.575 1.365v1Zm-8.836-8.346c0 2.683.786 4.794 2.334 6.228 1.542 1.43 3.766 2.118 6.502 2.118v-1c-2.58 0-4.525-.65-5.822-1.851-1.29-1.196-2.014-3.008-2.014-5.495h-1Zm8.836-8.345c-2.704 0-4.925.716-6.473 2.154-1.554 1.443-2.363 3.551-2.363 6.191h1c0-2.432.74-4.247 2.043-5.458 1.31-1.217 3.257-1.887 5.793-1.887v-1Zm5.537 1.555c-1.409-.983-3.258-1.555-5.537-1.555v1c2.11 0 3.75.528 4.965 1.375l.572-.82Zm-.786.404v.006h1v-.006h-1Zm4.023 7.496c.248-2.199-.015-5.73-3.243-7.91l-.56.829c2.766 1.868 3.041 4.91 2.809 6.97l.994.111Zm-.652.444h.155v-1h-.155v1Zm.5-.5v-.002l-1 .004 1-.003Zm-12.872.501h12.372v-1H40.136v1Zm4.25 2.105c-1.308 0-2.173-.249-2.736-.673-.55-.414-.886-1.05-1.018-2l-.99.137c.155 1.126.583 2.042 1.406 2.662.809.609 1.925.874 3.338.874v-1Zm3.676-1.396c-.268.706-1.205 1.396-3.676 1.396v1c2.554 0 4.105-.708 4.61-2.042l-.934-.354Zm4.541-.323H48.53v1h4.074v-1Zm-36.367 1.298c0 .906-.162 1.587-.445 2.107-.28.514-.694.903-1.26 1.198-1.165.608-2.931.802-5.314.802v1c2.378 0 4.372-.183 5.776-.915.719-.375 1.29-.896 1.677-1.607.383-.706.566-1.563.566-2.585h-1Zm-6.237-4.187c1.647.256 3.23.568 4.398 1.203.576.313 1.03.693 1.342 1.166.309.469.497 1.056.497 1.819h1c0-.938-.235-1.721-.662-2.37-.425-.643-1.02-1.125-1.7-1.494-1.34-.728-3.088-1.058-4.721-1.312l-.154.988Zm-.559-.085.56.086.151-.989-.56-.085-.15.988Zm-.277-.04.279.04.147-.989-.278-.041-.148.99Zm-.35-.053.35.052.148-.989-.349-.052-.148.989Zm-3.606-1.966c0 .231.041.485.194.728.15.238.378.416.658.558.538.272 1.408.477 2.755.68l.148-.99c-1.354-.203-2.075-.392-2.452-.582-.177-.09-.24-.162-.263-.2-.021-.033-.04-.083-.04-.194h-1ZM8.55 8.231c-1.226 0-2.047.22-2.578.568-.547.358-.765.843-.765 1.263h1c0-.058.027-.239.313-.426.303-.199.903-.405 2.03-.405v-1Zm3.993 2.37c0-.378-.08-.738-.269-1.06a2.094 2.094 0 0 0-.814-.77c-.68-.378-1.657-.54-2.91-.54v1c1.201 0 1.97.162 2.424.414a1.1 1.1 0 0 1 .437.4c.083.143.132.323.132.556h1Zm0 .134v-.134h-1v.134h1Zm3.782-.5h-4.282v1h4.282v-1Zm-.5.367v.133h1v-.133h-1ZM8.55 5.864c3.149 0 4.952.7 5.965 1.597 1.001.888 1.31 2.04 1.31 3.141h1c0-1.288-.367-2.755-1.647-3.89C13.91 5.59 11.825 4.865 8.55 4.865v1Zm-6.701 4.252c0-.987.28-2.017 1.196-2.811.929-.807 2.59-1.441 5.505-1.441v-1c-3.037 0-4.977.658-6.16 1.686C1.192 7.589.849 8.935.849 10.116h1Zm6.789 4.18C6.41 14 4.691 13.615 3.535 12.959c-.569-.322-.984-.7-1.258-1.15-.274-.447-.428-.996-.428-1.693h-1c0 .852.19 1.588.575 2.215.382.626.937 1.112 1.617 1.498 1.34.76 3.233 1.163 5.466 1.458l.131-.991Zm.651.08a51.6 51.6 0 0 1-.652-.08l-.13.991c.214.028.44.055.665.082l.117-.994Zm3.614 2.082a1.53 1.53 0 0 0-.387-1.045c-.24-.27-.56-.45-.893-.578-.654-.253-1.514-.363-2.334-.46l-.117.993c.85.1 1.576.2 2.09.4.252.097.412.203.506.31a.533.533 0 0 1 .135.38h1Zm-3.798 1.72c.85 0 1.734-.051 2.42-.251.344-.1.68-.25.936-.483.272-.248.442-.58.442-.986h-1a.306.306 0 0 1-.115.247c-.099.09-.272.183-.543.262-.542.158-1.306.212-2.14.212v1ZM4.821 15.76c0 .393.073.77.262 1.105.191.34.48.6.848.795.712.375 1.764.52 3.174.52v-1c-1.387 0-2.226-.151-2.708-.405-.227-.12-.36-.255-.442-.4-.084-.149-.134-.345-.134-.615h-1Zm0-.134v.134h1v-.134h-1Zm-3.819.5h4.32v-1h-4.32v1Zm.498-.196.002-.301-1-.005-.002.3 1 .006Zm0 .315v-.317l-1-.001v.317l1 .001Zm.912 2.51c-.8-.809-.904-1.766-.912-2.516l-1 .01c.009.83.123 2.118 1.201 3.209l.711-.704ZM9.217 20.5c-3.486 0-5.71-.643-6.805-1.747l-.71.704c1.397 1.41 3.99 2.043 7.515 2.043v-1Zm12.71-6.99V21h1v-7.49h-1Zm4.676-4.923c-1.93 0-3.15.624-3.859 1.636-.682.974-.817 2.211-.817 3.287h1c0-1.029.138-2.002.637-2.713.472-.674 1.34-1.21 3.04-1.21v-1Zm4.269 4.443c.006-.634.029-1.755-.516-2.711-.579-1.017-1.718-1.732-3.753-1.732v1c1.776 0 2.528.6 2.884 1.226.39.687.392 1.534.385 2.206l1 .011Zm-.001.104v-.104l-1-.01v.104l1 .01Zm0 7.866v-7.871h-1V21h1Zm3.68-.5h-4.18v1h4.18v-1Zm-.5-7.268V21h1v-7.768h-1Zm-6.232-7.266c1.568 0 2.717.328 3.565.826.845.497 1.42 1.18 1.816 1.939.801 1.54.85 3.369.851 4.501h1c0-1.131-.039-3.185-.964-4.963-.468-.9-1.166-1.734-2.197-2.34-1.03-.604-2.361-.963-4.071-.963v1ZM23.028 8.04c.464-.633 1.008-1.142 1.745-1.498.742-.358 1.711-.577 3.046-.577v-1c-1.443 0-2.57.236-3.48.676-.915.442-1.58 1.073-2.118 1.808l.807.591Zm-.6.205h.196v-1h-.197v1Zm-.5-2.779v2.279h1V5.467h-1Zm-3.707.5h4.206v-1h-4.206v1ZM18.72 21V5.467h-1V21h1Zm3.706-.5h-4.206v1h4.206v-1Zm17.87-8.574h8.188v-1h-8.188v1Zm4.089-3.431c-1.219 0-2.22.224-2.996.699-.786.482-1.297 1.196-1.57 2.085l.955.294c.211-.685.583-1.187 1.138-1.527.566-.347 1.366-.551 2.473-.551v-1Zm4.578 2.79c-.186-.631-.505-1.355-1.232-1.909-.724-.55-1.783-.881-3.346-.881v1c1.43 0 2.249.303 2.74.677.488.37.722.863.88 1.396l.958-.284ZM72 21V5.457h-1V21h1Zm-4.709.5H71.5v-1H67.29v1Zm-.5-2.669V21h1v-2.169h-1Zm.369.5h.131v-1h-.131v1ZM61.425 21.5c3.008 0 4.952-.848 6.129-2.362l-.79-.614c-.923 1.189-2.518 1.976-5.339 1.976v1Zm-7.742-8.271c0 1.086.188 3.133 1.25 4.925 1.086 1.83 3.058 3.346 6.492 3.346v-1c-3.075 0-4.723-1.324-5.632-2.856-.93-1.57-1.11-3.41-1.11-4.415h-1Zm0-.14v.137l1 .006v-.137l-1-.006Zm7.754-8.132c-3.382 0-5.352 1.407-6.453 3.175-1.076 1.73-1.285 3.747-1.3 4.954l1 .012c.014-1.135.215-2.936 1.15-4.438.91-1.463 2.553-2.703 5.603-2.703v-1Zm6.074 2.479c-1.17-1.53-3.092-2.479-6.074-2.479v1c2.755 0 4.345.863 5.28 2.086l.794-.607Zm-.22-.196h-.177v1h.176v-1Zm-.5-1.783V7.74h1V5.457h-1Zm4.708-.5H67.29v1H71.5v-1Zm-13.8 8.272c0 .607.12 1.76.811 2.774.715 1.048 1.99 1.874 4.136 1.874v-1c-1.851 0-2.8-.69-3.31-1.437-.532-.78-.638-1.702-.638-2.211h-1Zm4.954-4.648c-2.155 0-3.434.796-4.15 1.837-.694 1.007-.805 2.163-.805 2.81h1c0-.561.102-1.479.628-2.243.504-.731 1.452-1.404 3.327-1.404v-1Zm4.874 4.648c0-1.095-.19-2.275-.94-3.182-.765-.926-2.026-1.466-3.934-1.466v1c1.723 0 2.65.481 3.163 1.103.53.641.711 1.536.711 2.545h1Zm-4.882 4.648c1.893 0 3.16-.468 3.935-1.366.761-.884.947-2.074.947-3.282h-1c0 1.143-.185 2.026-.704 2.629-.507.587-1.43 1.019-3.177 1.019v1Zm44.802-2.346c-.198 1.537-.909 2.756-2.146 3.604-1.253.859-3.089 1.365-5.575 1.365v1c2.607 0 4.665-.53 6.14-1.54 1.49-1.02 2.341-2.503 2.573-4.3l-.992-.129Zm-3.578.564h4.074v-1h-4.074v1Zm-4.143 1.72c2.554 0 4.105-.71 4.611-2.043l-.935-.354c-.268.706-1.205 1.396-3.676 1.396v1Zm-4.745-3.537c.156 1.126.583 2.042 1.407 2.662.809.609 1.925.874 3.338.874v-1c-1.308 0-2.173-.249-2.737-.673-.549-.414-.886-1.05-1.018-2l-.99.137Zm12.867-.569H95.476v1h12.372v-1Zm-.5.5h1-1Zm.655-.5h-.155v1h.155v-1Zm-3.306-6.526c2.766 1.868 3.041 4.91 2.809 6.97l.993.111c.248-2.199-.014-5.73-3.242-7.91l-.56.829Zm.78-.41v-.005h-1v.006h1Zm-5.751-.964c2.11 0 3.75.528 4.965 1.375l.572-.82c-1.409-.983-3.258-1.555-5.537-1.555v1Zm-7.836 7.345c0-2.432.74-4.247 2.043-5.458 1.31-1.217 3.257-1.887 5.793-1.887v-1c-2.704 0-4.925.716-6.473 2.154-1.555 1.443-2.363 3.551-2.363 6.191h1Zm7.836 7.346c-2.58 0-4.525-.65-5.822-1.851-1.29-1.196-2.014-3.008-2.014-5.495h-1c0 2.683.786 4.794 2.334 6.228 1.542 1.43 3.766 2.118 6.502 2.118v-1Zm4.098-9.574h-8.187v1h8.187v-1Zm-4.098-1.431c1.431 0 2.249.303 2.74.677.488.37.721.863.879 1.396l.959-.284c-.186-.63-.505-1.354-1.232-1.908-.724-.55-1.783-.881-3.346-.881v1Zm-3.611 2.078c.211-.685.583-1.187 1.138-1.527.566-.347 1.366-.551 2.473-.551v-1c-1.22 0-2.22.224-2.996.699-.787.482-1.297 1.196-1.57 2.085l.955.294Zm17.145 2.458V21h1v-6.97h-1Zm4.55-5.043c-1.71 0-2.879.68-3.602 1.692-.704.987-.948 2.237-.948 3.35h1c0-.99.221-2.01.762-2.77.523-.732 1.379-1.272 2.788-1.272v-1Zm2.92.365c-.427-.12-1.536-.365-2.92-.365v1c1.276 0 2.293.228 2.65.328l.27-.963Zm.042-3.578-.67 3.976.986.166.67-3.976-.986-.166Zm.146.518.239.054.216-.977a40.84 40.84 0 0 1-.235-.052l-.22.975Zm.003 0h.001l.213-.976-.214.977Zm-2.413-.327c.95 0 1.727.173 2.41.327l.22-.975c-.684-.154-1.558-.352-2.63-.352v1Zm-4.054 2.033c.412-.71.812-1.193 1.382-1.515.575-.325 1.383-.518 2.672-.518v-1c-1.376 0-2.379.204-3.165.648-.791.447-1.301 1.104-1.753 1.883l.864.502Zm-.694.249h.262v-1h-.262v1Zm-.5-2.782v2.282h1V5.466h-1Zm-3.709.5h4.209v-1h-4.209v1Zm.5 15.034V5.466h-1V21h1Zm3.709-.5h-4.209v1h4.209v-1Zm17.221 1c2.378 0 4.372-.183 5.776-.915.719-.375 1.291-.896 1.677-1.607.383-.706.566-1.563.566-2.585h-1c0 .906-.162 1.587-.445 2.107-.279.514-.694.903-1.26 1.198-1.165.608-2.931.802-5.314.802v1Zm-7.515-2.043c1.397 1.41 3.99 2.043 7.515 2.043v-1c-3.486 0-5.711-.643-6.805-1.747l-.71.704Zm-1.202-3.208c.009.83.123 2.117 1.202 3.208l.711-.704c-.8-.808-.905-1.765-.913-2.515l-1 .01Zm.001-.323-.001.317 1 .001.001-.317-1-.001Zm.001-.303-.001.3 1 .006.001-.301-1-.005Zm4.819-.498h-4.319v1h4.319v-1Zm.5.634v-.134h-1v.134h1Zm3.284 1.42c-1.387 0-2.226-.151-2.708-.405-.227-.12-.36-.255-.442-.4-.083-.149-.134-.345-.134-.615h-1c0 .393.074.77.263 1.105.19.34.478.6.848.795.711.375 1.764.52 3.173.52v-1Zm2.798-.721a.304.304 0 0 1-.115.247c-.099.09-.272.183-.543.262-.541.158-1.306.212-2.14.212v1c.849 0 1.734-.052 2.42-.252.344-.1.68-.25.936-.483.272-.248.442-.58.442-.986h-1Zm-2.731-1.09c.85.1 1.576.2 2.091.4.251.097.411.203.506.31a.532.532 0 0 1 .134.38h1a1.53 1.53 0 0 0-.387-1.045c-.239-.27-.56-.45-.893-.578-.654-.253-1.514-.363-2.334-.46l-.117.993Zm-.664-.08c.213.027.438.054.664.08l.117-.993a53.583 53.583 0 0 1-.652-.08l-.129.992Zm-7.659-5.172c0 .852.191 1.588.575 2.215.383.626.938 1.112 1.617 1.498 1.341.76 3.233 1.163 5.466 1.458l.131-.991c-2.228-.295-3.947-.681-5.103-1.337-.569-.322-.983-.7-1.258-1.15-.274-.447-.428-.996-.428-1.693h-1Zm7.701-5.252c-3.037 0-4.976.658-6.16 1.686-1.197 1.039-1.541 2.385-1.541 3.566h1c0-.987.281-2.017 1.196-2.811.929-.807 2.59-1.441 5.505-1.441v-1Zm8.275 5.738c0-1.288-.367-2.755-1.647-3.89-1.268-1.123-3.353-1.848-6.628-1.848v1c3.149 0 4.952.7 5.965 1.597 1.001.888 1.31 2.04 1.31 3.141h1Zm0 .133v-.133h-1v.133h1Zm-4.782.5h4.282v-1h-4.282v1Zm-.5-.634v.134h1v-.134h-1Zm-2.993-1.37c1.202 0 1.971.162 2.424.414.218.12.353.257.437.4.083.143.132.323.132.556h1a2.08 2.08 0 0 0-.268-1.06 2.092 2.092 0 0 0-.815-.77c-.679-.378-1.657-.54-2.91-.54v1Zm-2.343.831c0-.058.027-.239.313-.426.303-.199.904-.405 2.03-.405v-1c-1.226 0-2.047.22-2.578.568-.546.358-.765.843-.765 1.263h1Zm2.755.977c-1.354-.204-2.074-.393-2.452-.583-.177-.09-.239-.162-.263-.2-.021-.033-.04-.083-.04-.194h-1c0 .231.041.485.194.728.151.238.378.416.658.558.538.272 1.408.477 2.755.68l.148-.99Zm.349.052-.349-.052-.148.989.349.052.148-.989Zm.278.042-.278-.042-.148.99.279.04.147-.989Zm.562.085-.56-.085-.151.988.561.086.15-.989ZM139 16.393c0-.937-.235-1.72-.662-2.368-.425-.644-1.02-1.126-1.699-1.495-1.342-.728-3.089-1.058-4.722-1.312l-.154.988c1.647.256 3.23.568 4.398 1.203.576.313 1.031.693 1.342 1.166.309.469.497 1.056.497 1.819h1Z" fill="#000"/></svg>